<svg xmlns="http://www.w3.org/2000/svg" viewBox="0 0 1601.86 1810"><defs><style>.a{fill:#141414;}</style></defs><path class="a" d="M1808.78,2071q-58.77-76.3-117.53-152.61-25.62-33.27-51.25-66.51c-8.51-11.1-7.71-16.54,3.33-24.94,4-3,8-6,12-9,6-4.67,6.11-4.75,1.59-10.52q-17.28-22-34.66-44l-35.35-44.69c-6.66-8.43-6.65-8.45-15.3-2.75a800.74,800.74,0,0,1-189.11,91.69c-58,19.27-117.41,32.32-178.36,37.67-224.87,19.76-426.54-39-601.22-182.66C469.54,1553,382.51,1413,342.28,1244.57a707.41,707.41,0,0,1-17.7-116.37c-.44-6.45,0-13.25-3.58-19.2v-68c3.86.5,6.55,3.06,9.36,5.38,15.43,12.72,30.74,25.57,46.33,38.09,4.28,3.43,6,7.16,6.3,12.67q12.08,237,167.53,416.44c110.23,127.14,249.49,204.93,414.38,237a696.41,696.41,0,0,0,161,12.22c168-6.78,317.89-62.17,446.84-170.67,115.67-97.32,192.35-219.69,228.88-366.72,9.89-39.82,15.49-80.31,17.92-121.3a680.17,680.17,0,0,0-26.69-233c-1.39-4.76-2.23-8.23,2.63-12.09,24-19.07,47.62-38.6,71.4-58,1.26-1,2.47-2.31,4.85-1.91,2.38,3.26,3.45,7.47,4.9,11.44,21.81,59.69,36.57,121,42.47,184.37,19.42,208.34-37,394.08-167,557.62-36,45.3-77.28,85.47-122.63,121.44-6.35,5-6.38,5.15-1.34,11.53q35.31,44.73,70.7,89.38c5,6.37,5.15,6.32,11.59,1.59,3.49-2.56,6.82-5.36,10.42-7.76,7.61-5.1,13.33-4.43,19.4,2.37,3.1,3.48,5.8,7.3,8.65,11q77.57,100.48,155.12,201a68.17,68.17,0,0,1,4.74,6.43c3.76,6.24,3,12.09-2.32,17.1a79.6,79.6,0,0,1-7,5.58q-35.57,26.71-71.11,53.45c-2,1.53-4.88,2.34-5.54,5.34Z" transform="translate(-321 -261)"/><path class="a" d="M1566.81,261c3.06,3.11,7.38,2.56,11.08,3.52,38.8,10.13,70.46,46.53,68.33,93.18a91.88,91.88,0,0,1-78.51,86.92c-48.28,7.2-93.35-24.68-103.51-73.22-9.81-46.81,19.24-93.79,65.76-106.67,3.65-1,7.93-.53,10.86-3.73Z" transform="translate(-321 -261)"/><path class="a" d="M761.09,1528.18q4.6-83.81,9.21-167.62,3.29-60.37,6.5-120.74,4.71-85.82,9.54-171.61c2.12-37.58,3.93-75.18,6.64-112.72,2.18-30.14,9.3-59.21,24-85.89,25-45.43,64-70.92,114.67-79.53,4.63-.78,6.11.62,6.4,4.71.79,11.29,1.65,22.58,2.37,33.87,2.31,36.55,4.5,73.1,6.87,109.64q4.9,75.74,10,151.46,4,59.77,8,119.56,5,75.23,10,150.46t10,150.45q.83,12.45,1.88,24.89a11,11,0,0,1-4.22,10.37q-48.36,41.08-96.36,82.6c-3.37,2.92-5.72,3.19-9.43.45q-55.78-41.33-111.88-82.26c-3.74-2.73-5-5.75-4.51-10.1a71,71,0,0,0,.05-8Z" transform="translate(-321 -261)"/><path class="a" d="M1437.75,1236.06q4.74-90.9,9.49-181.71,5.94-110.79,12.09-221.56,4.74-85.34,9.84-170.63c1.77-28.78,7.5-56.84,19.89-83C1512.75,529,1552.6,500,1607,490.54c7.5-1.31,7.54-1.14,8,6.41,2.09,32.56,4.08,65.13,6.26,97.69,3.1,46.17,6.4,92.33,9.47,138.51,3.58,53.82,7,107.65,10.49,161.48q3.91,59.79,8,119.59,5,75.75,10.08,151.49,2.32,34.38,5.11,68.73c.39,4.8-1,8-4.7,11.17q-48,40.8-95.59,82c-4.21,3.66-6.92,3.17-11,.14q-55-40.74-110.28-81.12C1439,1243.86,1436,1241.2,1437.75,1236.06Z" transform="translate(-321 -261)"/><path class="a" d="M1278.28,637.1c.85,11.36,1.69,21.88,2.4,32.41q4.08,60.78,8.09,121.56c2.86,43.85,5.6,87.7,8.47,131.55q3.9,59.77,8,119.56,4,60.28,8,120.56,4,59.79,8,119.56,3.42,49.82,7.21,99.59c.4,5.2-1.14,8.67-5.11,12q-47.61,40.46-94.82,81.35c-4.6,4-7.44,3.45-11.89.15q-54.57-40.52-109.47-80.55c-4.21-3.07-6-6.07-5.65-11.52,2-29.58,3.54-59.19,5.16-88.78q4.92-89.8,9.75-179.61c1.42-26.28,2.79-52.56,4.25-78.83q4.84-86.81,9.72-173.6c1.26-22.95,1.8-45.95,4.53-68.78,3.15-26.3,9.68-51.77,22.42-75.16C1183.26,670.94,1224.23,645.31,1278.28,637.1Z" transform="translate(-321 -261)"/><path class="a" d="M969.22,653.75c-.09,51.14-41,91.73-92.32,91.56a92,92,0,0,1-91.62-91.58c-.13-50.58,41.56-92.37,92.14-92.37C928.24,561.37,969.31,602.7,969.22,653.75Z" transform="translate(-321 -261)"/><path class="a" d="M1126.58,501.58a91.92,91.92,0,0,1,92-92.23c50.11,0,91.68,41.43,92,91.55a91.91,91.91,0,0,1-91.79,92.39C1167.37,593.39,1126.6,552.81,1126.58,501.58Z" transform="translate(-321 -261)"/></svg>